<svg width="235" height="218" viewBox="0 0 235 218" fill="none" xmlns="http://www.w3.org/2000/svg">
<g clip-path="url(#clip0_432_1143)">
<path d="M19.7952 80.6466H54.658V72.8666H28.822V26.729H47.1003V36.3464H55.5611V18.7339H19.7952V80.6466Z" fill="#1E4CF9"/>
<path d="M111.749 26.6214H125.736V80.6466H134.313V26.6214H147.627V18.7339H111.749V26.6214Z" fill="#1E4CF9"/>
<path d="M179.426 71.7865H176.155L168.031 18.7339H157.202L168.71 80.6466H187.213L198.832 18.7339H187.437L179.426 71.7865Z" fill="#1E4CF9"/>
<path d="M100.021 53.0445V18.7961H66.5151V80.7088H75.2006L75.0883 53.0486H78.6964L94.4901 80.7088H105.773L90.0912 53.0486H100.021V53.0445ZM75.0839 45.2687V26.4685H90.99V45.2687H75.0839Z" fill="#1E4CF9"/>
<path d="M54.9992 177.3H27.6595V152.528H54.9992V144.707H27.6595V131.237H54.9992V123.416L19.0388 123.523V185.771H54.9992V177.3Z" fill="#1E4CF9"/>
<path d="M102.419 159.373L75.7623 144.595V131.564H94.1401V141.231H102.648V123.523H66.688V152.421L93.5697 167.302V177.623H75.3086V167.956H66.688V185.771L102.419 185.663V159.373Z" fill="#1E4CF9"/>
<path d="M147.661 177.95H121.683V131.564H148.374L148.564 123.523H112.608V185.771H147.661V177.95Z" fill="#1E4CF9"/>
<path d="M227.745 114.485L235.004 114.527L234.831 16.4786L217.197 0H0V100.068L5.15078 104.698H0V204.766L14.048 218H235.004L234.831 121.181L227.745 114.489V114.485ZM217.197 196.489V116.153L226.194 124.649L226.336 205.486L217.197 196.733V196.493V196.489ZM226.194 19.9465L226.336 100.783L217.197 92.031V11.4506L226.194 19.9465ZM213.364 100.068L219.733 106.167H218.925L217.495 104.814L217.193 105.108V104.702H17.3147L12.5269 100.072H213.364V100.068ZM8.64225 8.27654H208.555V91.791H8.64225V8.27654ZM14.048 113.302L208.555 114.382V196.489H8.64225V112.975H13.7109L14.048 113.302ZM12.5226 204.766H213.36L219.729 210.866L17.6691 209.744L12.5226 204.766Z" fill="#1E4CF9"/>
<path d="M132.922 150.6V158.877H179.742L169.414 168.771L175.524 174.623L194.036 156.894V153.377L175.524 135.653L169.414 141.504L178.912 150.6H132.922Z" fill="#1E4CF9"/>
<path d="M132.922 150.6V158.877H179.742L169.414 168.771L175.524 174.623L194.036 156.894V153.377L175.524 135.653L169.414 141.504L178.912 150.6H132.922Z" fill="#1E4CF9"/>
</g>
<defs>
<clipPath id="clip0_432_1143">
<rect width="235" height="218" fill="white"/>
</clipPath>
</defs>
</svg>
